<svg width="446" height="446" viewBox="0 0 446 446" fill="none" xmlns="http://www.w3.org/2000/svg">
<rect width="446" height="446" fill="black"/>
<path d="M446 223C446 345.65 345.65 446 223 446C100.35 446 0 345.65 0 223C0 100.35 100.35 0 223 0C345.65 0 446 100.35 446 223Z" fill="black"/>
<path fill-rule="evenodd" clip-rule="evenodd" d="M218.343 104.698L225.792 100.402L240.343 108.794L230.754 130.757L218.343 104.698ZM232.403 134.219L242.867 110.25L334.5 163.095V177.279L281.037 236.331L232.403 134.219ZM278.935 238.652L230.869 137.733L202.894 201.815L235.438 286.696L278.935 238.652ZM233.259 289.103L201.243 205.598L155.412 310.584L193.779 332.711L233.259 289.103ZM280.282 241.479L236.6 289.727L253.936 334.942L309.527 302.882L280.282 241.479ZM234.421 292.134L251.396 336.407L225.792 351.173L196.345 334.19L234.421 292.134ZM172.658 131.044L199.765 201.744L153.059 308.734L117.083 245.669V163.095L172.658 131.044ZM117.083 251.514L148.511 306.604L117.083 288.48V251.514ZM201.417 197.961L175.199 129.579L215.826 106.149L229.22 134.271L201.417 197.961ZM282.384 239.157L334.5 181.593V288.48L312.043 301.431L282.384 239.157Z" fill="url(#paint0_linear_2482_9163)"/>
<defs>
<linearGradient id="paint0_linear_2482_9163" x1="34.8437" y1="62.7188" x2="383.281" y2="334.5" gradientUnits="userSpaceOnUse">
<stop stop-color="#F8F8F8"/>
<stop offset="1" stop-color="#E49C30"/>
</linearGradient>
</defs>
</svg>
