<svg width="24" height="24" viewBox="0 0 24 24" fill="none" xmlns="http://www.w3.org/2000/svg">
<path d="M18.606 21H5.394C4.071 21 3 19.929 3 18.606V5.394C3 4.071 4.071 3 5.394 3H18.597C19.929 3 21 4.071 21 5.394V18.597C21 19.929 19.929 21 18.606 21Z" fill="white" fill-opacity="0.3"/>
<path d="M11.9999 15.6C13.9881 15.6 15.5999 13.9882 15.5999 12C15.5999 10.0118 13.9881 8.39999 11.9999 8.39999C10.0117 8.39999 8.3999 10.0118 8.3999 12C8.3999 13.9882 10.0117 15.6 11.9999 15.6Z" fill="white" fill-opacity="0.6"/>
<path d="M11.9999 15.6C13.9881 15.6 15.5999 13.9882 15.5999 12C15.5999 10.0118 13.9881 8.39999 11.9999 8.39999C10.0117 8.39999 8.3999 10.0118 8.3999 12C8.3999 13.9882 10.0117 15.6 11.9999 15.6Z" stroke="white" stroke-width="0.8" stroke-linejoin="round"/>
<path d="M17.4002 6.15C17.6487 6.15 17.8502 5.94853 17.8502 5.7C17.8502 5.45147 17.6487 5.25 17.4002 5.25C17.1517 5.25 16.9502 5.45147 16.9502 5.7C16.9502 5.94853 17.1517 6.15 17.4002 6.15Z" fill="white" fill-opacity="0.3"/>
<path d="M17.4002 6.15C17.6487 6.15 17.8502 5.94853 17.8502 5.7C17.8502 5.45147 17.6487 5.25 17.4002 5.25C17.1517 5.25 16.9502 5.45147 16.9502 5.7C16.9502 5.94853 17.1517 6.15 17.4002 6.15Z" stroke="white" stroke-width="0.8" stroke-linejoin="round"/>
</svg>
