<svg width="32" height="32" viewBox="0 0 32 32" fill="none" xmlns="http://www.w3.org/2000/svg">
<path fill-rule="evenodd" clip-rule="evenodd" d="M16 32C24.8366 32 32 24.8366 32 16C32 7.16344 24.8366 0 16 0C7.16344 0 0 7.16344 0 16C0 24.8366 7.16344 32 16 32Z" fill="black"/>
<g clip-path="url(#clip0)">
<path d="M19.3399 16.7452C20.6531 16.7452 22.5546 16.4721 22.5546 14.9099C22.5589 14.7893 22.5483 14.6686 22.5231 14.5506L21.7404 11.1521C21.5597 10.4041 21.4011 10.0647 20.0879 9.40814C19.0699 8.88706 16.848 8.0256 16.1914 8.0256C15.582 8.0256 15.4034 8.81352 14.6744 8.81352C13.9726 8.81352 13.4515 8.22521 12.7939 8.22521C12.1635 8.22521 11.7538 8.65594 11.4366 9.5384C11.4366 9.5384 10.5541 12.0303 10.4385 12.3917C10.4212 12.4582 10.4141 12.5269 10.4175 12.5955C10.4175 13.5641 14.231 16.74 19.3399 16.74V16.7452ZM22.7573 15.5444C22.9391 16.4059 22.9391 16.4952 22.9391 16.6086C22.9391 18.0794 21.2855 18.8957 19.1119 18.8957C14.1995 18.8989 9.89644 16.0203 9.89644 14.1188C9.89568 13.8537 9.94931 13.5913 10.054 13.3477C8.29119 13.436 6.00098 13.7511 6.00098 15.7703C6.00098 19.0774 13.8381 23.1536 20.0417 23.1536C24.7986 23.1536 25.9983 21.0021 25.9983 19.3033C25.9983 17.967 24.8427 16.45 22.7594 15.5444" fill="#EE0000"/>
<path d="M22.7579 15.5444C22.9396 16.4059 22.9396 16.4952 22.9396 16.6086C22.9396 18.0794 21.2861 18.8957 19.1125 18.8957C14.2001 18.8989 9.89698 16.0203 9.89698 14.1188C9.89622 13.8537 9.94985 13.5913 10.0546 13.3477L10.4401 12.3959C10.4225 12.4609 10.4147 12.5282 10.417 12.5955C10.417 13.5641 14.2305 16.74 19.3404 16.74C20.6536 16.74 22.5551 16.4689 22.5551 14.9057C22.5595 14.7847 22.5489 14.6637 22.5236 14.5454L22.7579 15.5444Z" fill="black"/>
</g>
<defs>
<clipPath id="clip0">
<rect width="20" height="15.128" fill="white" transform="translate(6 8.0256)"/>
</clipPath>
</defs>
</svg>
