<svg width="32" height="32" viewBox="0 0 32 32" fill="none" xmlns="http://www.w3.org/2000/svg">
<path fill-rule="evenodd" clip-rule="evenodd" d="M16 32C24.8366 32 32 24.8366 32 16C32 7.16344 24.8366 0 16 0C7.16344 0 0 7.16344 0 16C0 24.8366 7.16344 32 16 32Z" fill="#FF0909"/>
<path d="M11.1377 13.398C11.1377 12.958 11.2624 12.628 11.5117 12.408C11.7611 12.1733 12.0617 12.056 12.4137 12.056C12.7657 12.056 13.0444 12.1587 13.2497 12.364V18.678C13.2497 19.514 13.3817 20.1447 13.6457 20.57C13.9097 20.9953 14.2691 21.208 14.7237 21.208C15.1784 21.208 15.6184 20.944 16.0437 20.416C16.5424 19.7853 16.7917 18.6193 16.7917 16.918C16.8064 16.83 16.9164 16.786 17.1217 16.786C17.3857 16.786 17.5177 17.1747 17.5177 17.952C17.5177 19.1987 17.2464 20.196 16.7037 20.944C16.1757 21.692 15.4277 22.066 14.4597 22.066C12.9197 22.066 11.9077 21.3693 11.4237 19.976C10.8517 21.3693 9.80306 22.066 8.27773 22.066C7.36839 22.066 6.63506 21.7947 6.07773 21.252C5.52039 20.6947 5.24173 19.9027 5.24173 18.876V13.398C5.24173 12.958 5.35173 12.628 5.57173 12.408C5.79173 12.1733 6.07039 12.056 6.40773 12.056C6.74506 12.056 7.01639 12.1587 7.22173 12.364V18.678C7.22173 20.4233 7.66173 21.296 8.54173 21.296C9.20173 21.296 9.79573 20.9 10.3237 20.108C10.8664 19.316 11.1377 18.2013 11.1377 16.764V13.398ZM26.0613 17.05C26.3693 17.05 26.5233 17.2847 26.5233 17.754C26.5233 18.8393 26.142 19.8293 25.3793 20.724C24.6313 21.6187 23.4873 22.066 21.9473 22.066C20.4073 22.066 19.168 21.6553 18.2293 20.834C17.3053 19.998 16.8433 18.7807 16.8433 17.182C16.8433 15.5687 17.254 14.3147 18.0753 13.42C18.8966 12.5107 19.9453 12.056 21.2213 12.056C22.1453 12.056 22.82 12.3053 23.2453 12.804C23.6706 13.288 23.8833 13.8673 23.8833 14.542C23.8833 15.642 23.4213 16.5587 22.4973 17.292C21.588 18.0107 20.422 18.37 18.9993 18.37C19.1313 19.3087 19.4686 20.02 20.0113 20.504C20.5686 20.9733 21.2946 21.208 22.1893 21.208C23.0986 21.208 23.9126 20.8707 24.6313 20.196C25.3646 19.5067 25.7313 18.502 25.7313 17.182C25.746 17.094 25.856 17.05 26.0613 17.05ZM18.9333 17.358V17.556C19.8426 17.4387 20.6273 17.1527 21.2873 16.698C21.962 16.2433 22.2993 15.5687 22.2993 14.674C22.2993 14.102 22.1746 13.6693 21.9253 13.376C21.676 13.068 21.324 12.914 20.8693 12.914C20.18 12.914 19.6813 13.2513 19.3733 13.926C19.08 14.6007 18.9333 15.7447 18.9333 17.358Z" fill="white"/>
</svg>
