<svg width="1440" height="431" viewBox="0 0 1440 431" fill="none" xmlns="http://www.w3.org/2000/svg">
<g style="mix-blend-mode:hard-light">
<path d="M-77.5452 76.8924C-1.18986 74.6102 49.2721 27.2859 203.446 61.1547C357.619 95.0235 425.821 156.833 581.164 169.468C736.508 182.103 798.927 226.857 927.788 280.918C1121.25 362.082 1469.1 378.705 1469.1 378.705" stroke="url(#paint0_linear)" stroke-width="0.7"/>
<path d="M-95.5387 101.778C-18.6549 97.3663 31.6862 45.6256 187.322 77.7224C342.957 109.819 412.286 173.92 568.882 183.358C725.478 192.797 788.808 238.872 919.154 293.143C1114.85 374.623 1465.38 383.321 1465.38 383.321" stroke="url(#paint1_linear)" stroke-width="0.8"/>
<path d="M-112.963 127.066C-35.602 120.507 14.4793 64.3403 171.561 94.6241C328.643 124.908 399.2 191.279 556.984 197.481C714.768 203.682 779.073 251.06 910.952 305.506C1108.95 387.247 1462 387.931 1462 387.931" stroke="url(#paint2_linear)" stroke-width="0.9"/>
<path d="M-129.808 152.747C-52.0214 144.022 -2.33925 83.424 156.173 111.854C314.686 140.283 386.571 208.9 545.477 211.827C704.383 214.753 769.729 263.413 903.186 317.995C1103.55 399.942 1458.94 392.528 1458.94 392.528" stroke="url(#paint3_linear)"/>
<path d="M-146.064 178.809C-67.9039 167.901 -18.7605 102.87 141.166 129.405C301.092 155.94 374.405 226.775 534.366 226.389C694.328 226.003 760.778 275.923 895.858 330.602C1098.66 412.695 1456.21 397.102 1456.21 397.102" stroke="url(#paint4_linear)" stroke-width="1.1"/>
<path d="M-161.721 205.241C-83.24 192.135 -34.7751 122.672 126.546 147.271C287.867 171.87 362.708 244.894 523.658 241.16C684.607 237.426 752.226 288.58 888.972 343.316C1094.28 425.493 1453.81 401.644 1453.81 401.644" stroke="url(#paint5_linear)" stroke-width="1.2"/>
<path d="M-176.769 232.031C-98.0209 216.713 -50.3744 142.823 112.323 165.445C275.02 188.067 351.487 263.247 513.356 256.131C675.226 249.015 744.076 301.377 882.532 356.127C1090.4 438.326 1451.75 406.147 1451.75 406.147" stroke="url(#paint6_linear)" stroke-width="1.3"/>
<path d="M-191.2 259.168C-112.238 241.625 -65.5492 163.317 98.5041 183.921C262.557 204.526 340.748 281.826 503.468 271.294C666.187 260.762 736.331 314.304 876.539 369.025C1087.04 451.18 1450.01 410.602 1450.01 410.602" stroke="url(#paint7_linear)" stroke-width="1.4"/>
<path d="M-205.004 286.64C-125.881 266.86 -80.2912 184.145 85.0969 202.691C250.485 221.237 330.496 300.619 493.996 286.64C657.496 272.661 728.996 327.354 870.996 382C1084.19 464.043 1448.6 415 1448.6 415" stroke="url(#paint8_linear)" stroke-width="1.5"/>
</g>
<defs>
<linearGradient id="paint0_linear" x1="688.641" y1="278.585" x2="709.453" y2="130.5" gradientUnits="userSpaceOnUse">
<stop offset="0.0989583" stop-color="#C98C31"/>
<stop offset="1" stop-color="#EABE7D"/>
</linearGradient>
<linearGradient id="paint1_linear" x1="678.255" y1="296.857" x2="697.698" y2="138.505" gradientUnits="userSpaceOnUse">
<stop offset="0.0989583" stop-color="#C98C31"/>
<stop offset="1" stop-color="#EABE7D"/>
</linearGradient>
<linearGradient id="paint2_linear" x1="668.439" y1="315.325" x2="686.161" y2="146.713" gradientUnits="userSpaceOnUse">
<stop offset="0.0989583" stop-color="#C98C31"/>
<stop offset="1" stop-color="#EABE7D"/>
</linearGradient>
<linearGradient id="paint3_linear" x1="659.199" y1="333.977" x2="674.847" y2="155.12" gradientUnits="userSpaceOnUse">
<stop offset="0.0989583" stop-color="#C98C31"/>
<stop offset="1" stop-color="#EABE7D"/>
</linearGradient>
<linearGradient id="paint4_linear" x1="650.54" y1="352.801" x2="663.761" y2="163.721" gradientUnits="userSpaceOnUse">
<stop offset="0.0989583" stop-color="#C98C31"/>
<stop offset="1" stop-color="#EABE7D"/>
</linearGradient>
<linearGradient id="paint5_linear" x1="642.465" y1="371.782" x2="652.909" y2="172.515" gradientUnits="userSpaceOnUse">
<stop offset="0.0989583" stop-color="#C98C31"/>
<stop offset="1" stop-color="#EABE7D"/>
</linearGradient>
<linearGradient id="paint6_linear" x1="634.981" y1="390.908" x2="642.294" y2="181.495" gradientUnits="userSpaceOnUse">
<stop offset="0.0989583" stop-color="#C98C31"/>
<stop offset="1" stop-color="#EABE7D"/>
</linearGradient>
<linearGradient id="paint7_linear" x1="628.09" y1="410.166" x2="631.921" y2="190.659" gradientUnits="userSpaceOnUse">
<stop offset="0.0989583" stop-color="#C98C31"/>
<stop offset="1" stop-color="#EABE7D"/>
</linearGradient>
<linearGradient id="paint8_linear" x1="621.796" y1="429.542" x2="621.796" y2="200.001" gradientUnits="userSpaceOnUse">
<stop offset="0.0989583" stop-color="#C98C31"/>
<stop offset="1" stop-color="#EABE7D"/>
</linearGradient>
</defs>
</svg>
