<svg width="24" height="24" viewBox="0 0 24 24" fill="none" xmlns="http://www.w3.org/2000/svg">
<path d="M18.9985 7.25027C20.6914 5.70144 19.7369 3 19.7369 3C19.7369 3 17.0355 3 16.09 4.6839C15.5497 4.48579 14.9734 4.35973 14.3701 4.35973H11.6956C11.1103 4.35973 10.552 4.47679 10.0298 4.66589C9.08421 3 6.40079 3 6.40079 3C6.40079 3 5.45529 5.70144 7.13919 7.25027C7.13919 7.25027 6.69794 8.57397 6.69794 9.3664C6.69794 11.7617 8.39985 13.7697 10.6511 14.256C10.489 14.5982 10.399 14.9674 10.399 15.3636V17.957C9.77762 18.1011 8.27378 18.6594 7.76952 17.1195C7.36431 15.8859 5.58135 13.5716 3.20408 13.8058C2.4747 13.8688 1.93441 14.5171 2.00645 15.2465C2.07848 15.9759 2.71783 16.5252 3.44721 16.4442C3.77139 16.4082 4.80694 16.8584 5.3022 18.1011C5.60837 18.8575 5.88751 19.5688 6.45482 20.0461C7.05814 20.5684 7.85056 20.7305 8.62497 20.7305C9.07521 20.7305 10.2909 20.6674 10.6781 20.5954C11.1103 21.4689 15.6758 20.8835 15.6758 19.4338V15.3546C15.6758 14.9584 15.5767 14.5802 15.4236 14.247C17.6748 13.7607 19.3767 11.7527 19.3767 9.35739C19.3767 8.52895 18.9985 7.25027 18.9985 7.25027Z" fill="white" fill-opacity="0.6"/>
</svg>
