<svg width="24" height="24" viewBox="0 0 24 24" fill="none" xmlns="http://www.w3.org/2000/svg">
<path d="M18.1165 20.3333H5.88317C4.65817 20.3333 3.6665 19.3417 3.6665 18.1167V5.88332C3.6665 4.65832 4.65817 3.66666 5.88317 3.66666H18.1082C19.3415 3.66666 20.3332 4.65832 20.3332 5.88332V18.1083C20.3332 19.3417 19.3415 20.3333 18.1165 20.3333Z" fill="white" fill-opacity="0.3"/>
<path d="M7.8335 10.3333V16.1667" stroke="white" stroke-width="0.833333" stroke-miterlimit="10" stroke-linecap="round" stroke-linejoin="round"/>
<path d="M16.1665 16.1667C16.1665 16.1667 16.1665 12.375 16.1665 12.3667C16.1665 11.8917 16.1915 11.3417 15.9665 10.9083C15.4665 9.92498 14.1415 10.425 13.4332 10.8333C12.6998 11.25 12.0332 11.7833 11.3998 12.3333C11.3248 12.4 11.2415 12.475 11.1665 12.5417V10.3417V16.1667" stroke="white" stroke-width="0.833333" stroke-miterlimit="10" stroke-linecap="round" stroke-linejoin="round"/>
<path d="M7.83317 7.83333C8.06329 7.83333 8.24984 7.64678 8.24984 7.41667C8.24984 7.18655 8.06329 7 7.83317 7C7.60305 7 7.4165 7.18655 7.4165 7.41667C7.4165 7.64678 7.60305 7.83333 7.83317 7.83333Z" fill="white"/>
<path d="M7.83317 7.83333C8.06329 7.83333 8.24984 7.64678 8.24984 7.41667C8.24984 7.18655 8.06329 7 7.83317 7C7.60305 7 7.4165 7.18655 7.4165 7.41667C7.4165 7.64678 7.60305 7.83333 7.83317 7.83333Z" stroke="white" stroke-width="0.833333" stroke-miterlimit="10" stroke-linecap="round" stroke-linejoin="round"/>
</svg>
